<svg width="20" height="20" viewBox="0 0 20 20" fill="none" xmlns="http://www.w3.org/2000/svg">
<path fill-rule="evenodd" clip-rule="evenodd" d="M6.93342 6.21159C7.15865 7.4894 7.89894 8.933 9.17628 10.1631C10.4536 11.3933 11.9241 12.0787 13.2094 12.2557C14.4967 12.4329 15.4603 12.0983 16.0408 11.4956L18.5618 13.9234C17.0153 15.5293 14.8248 16.0111 12.732 15.723C10.6374 15.4346 8.50185 14.3728 6.74843 12.6842C4.995 10.9955 3.85359 8.90146 3.48655 6.81915C3.11985 4.73871 3.51894 2.53161 5.06543 0.925781L7.58645 3.35364C7.00594 3.95642 6.70786 4.9319 6.93342 6.21159Z" fill="#ffffff"/>
<path d="M8.94217 3.02595L6.75647 0.800833C6.32113 0.357639 5.60894 0.351273 5.16574 0.786615C4.88137 1.06595 4.76607 1.47492 4.86266 1.86166L5.39594 3.99689C5.49801 4.40558 5.70749 4.77955 6.00268 5.08006L6.41926 5.50415C7.1036 6.20084 8.22313 6.21084 8.91982 5.52651C9.6165 4.84217 9.6265 3.72263 8.94217 3.02595Z" fill="#ffffff"/>
<path d="M16.1961 10.2485L18.4015 12.4539C18.8408 12.8932 18.8408 13.6055 18.4015 14.0447C18.1197 14.3266 17.7097 14.4382 17.3238 14.3382L15.1935 13.7859C14.7857 13.6801 14.4136 13.4673 14.1158 13.1695L13.6954 12.7491C13.0049 12.0586 13.0049 10.939 13.6954 10.2485C14.3859 9.55792 15.5055 9.55792 16.1961 10.2485Z" fill="#ffffff"/>
</svg>
