<svg width="18" height="14" viewBox="0 0 18 14" fill="none" xmlns="http://www.w3.org/2000/svg">
<path d="M1.31707 0C1.14454 0 0.98077 0.04445 0.830031 0.117788L8.4718 8.09375C8.80626 8.44318 9.17923 8.44343 9.51448 8.09375L17.1631 0.109359C17.0146 0.0384701 16.8524 0 16.6829 0H1.31707ZM0.0137195 1.37981C0.00478976 1.45605 0 1.53602 0 1.61538V12.3846C0 13.2795 0.587428 14 1.31707 14H16.6829C17.4126 14 18 13.2795 18 12.3846V1.61538C18 1.53602 17.9952 1.45605 17.9863 1.37981L10.372 9.32212C9.58263 10.1454 8.40361 10.1467 7.61433 9.32212L0.0137195 1.37981Z" fill="#ffffff"/>
</svg>
